<svg width="131" height="40" viewBox="0 0 131 40" fill="none" xmlns="http://www.w3.org/2000/svg">
<g clip-path="url(#clip0_3_2434)">
<path d="M9.73742 14.1421H2.19532C0.982877 14.1421 0 15.1351 0 16.36V37.7511C0 38.976 0.982877 39.969 2.19532 39.969H9.73742C10.9499 39.969 11.9327 38.976 11.9327 37.7511V16.36C11.9327 15.1351 10.9499 14.1421 9.73742 14.1421Z" fill="#E63455"/>
<path d="M38.1237 14.1731H30.6427C29.4345 14.1731 28.4551 15.1626 28.4551 16.3833V37.7898C28.4551 39.0105 29.4345 40 30.6427 40H38.1237C39.3319 40 40.3113 39.0105 40.3113 37.7898V16.3833C40.3113 15.1626 39.3319 14.1731 38.1237 14.1731Z" fill="#E63455"/>
<path d="M52.2897 14.1731H44.8088C43.6005 14.1731 42.6211 15.1626 42.6211 16.3833V37.7898C42.6211 39.0105 43.6005 40 44.8088 40H52.2897C53.4979 40 54.4773 39.0105 54.4773 37.7898V16.3833C54.4773 15.1626 53.4979 14.1731 52.2897 14.1731Z" fill="#E63455"/>
<path d="M66.4562 14.1421H58.9753C57.7671 14.1421 56.7876 15.1316 56.7876 16.3523V37.7588C56.7876 38.9794 57.7671 39.969 58.9753 39.969H66.4562C67.6644 39.969 68.6438 38.9794 68.6438 37.7588V16.3523C68.6438 15.1316 67.6644 14.1421 66.4562 14.1421Z" fill="#E63455"/>
<path d="M66.4562 0H58.9753C57.7671 0 56.7876 0.989541 56.7876 2.2102V9.56723C56.7876 10.7879 57.7671 11.7774 58.9753 11.7774H66.4562C67.6644 11.7774 68.6438 10.7879 68.6438 9.56723V2.2102C68.6438 0.989541 67.6644 0 66.4562 0Z" fill="#E63455"/>
<path d="M23.9266 0H16.4456C15.2447 0 14.2656 0.989181 14.2656 2.2102V37.7898C14.2656 39.0108 15.2447 40 16.4533 40H23.9342C25.1428 40 26.1219 39.0108 26.1219 37.7898V2.2102C26.1142 0.989181 25.1351 0 23.9266 0Z" fill="#E63455"/>
<path d="M81.4642 1.77748C82.0915 2.21025 82.5657 2.8053 82.8946 3.54719C83.2235 4.28908 83.3842 5.1237 83.3842 6.0356C83.3842 6.9475 83.2159 7.78212 82.8946 8.52401C82.5657 9.26589 82.0915 9.86095 81.4642 10.2937C80.837 10.7265 80.095 10.9429 79.223 10.9429H75.9033C75.6661 10.9429 75.4596 10.8579 75.299 10.6956C75.1383 10.5333 75.0542 10.3324 75.0542 10.0851V1.97841C75.0542 1.73884 75.1383 1.53019 75.299 1.3679C75.4596 1.20561 75.6585 1.12061 75.9033 1.12061H79.223C80.095 1.12061 80.8446 1.33699 81.4642 1.76976V1.77748ZM80.9594 8.40036C81.3724 7.77439 81.5866 6.98614 81.5866 6.0356C81.5866 5.08506 81.3724 4.2968 80.9517 3.67084C80.531 3.0526 79.9038 2.73575 79.0853 2.73575H76.7906V9.32772H79.0853C79.9191 9.32772 80.5463 9.0186 80.9594 8.39263V8.40036Z" fill="white"/>
<path d="M85.1815 2.37251C85.0514 2.27205 84.9902 2.08657 84.9902 1.82382V1.55334C84.9902 1.29059 85.0591 1.11285 85.1968 1.00466C85.3344 0.904193 85.5563 0.850098 85.8622 0.850098C86.1835 0.850098 86.413 0.904193 86.543 1.00466C86.6731 1.10512 86.7342 1.29059 86.7342 1.55334V1.82382C86.7342 2.0943 86.6654 2.27977 86.5354 2.38024C86.3977 2.4807 86.1682 2.52707 85.8469 2.52707C85.5257 2.52707 85.3115 2.47297 85.1815 2.37251ZM86.4589 10.7033C86.2982 10.8656 86.0994 10.9506 85.8622 10.9506C85.6251 10.9506 85.4186 10.8656 85.2656 10.7033C85.105 10.541 85.0285 10.3401 85.0285 10.0928V4.29678C85.0285 4.05721 85.105 3.84855 85.2656 3.68626C85.4262 3.52398 85.6251 3.43897 85.8622 3.43897C86.0994 3.43897 86.2982 3.52398 86.4589 3.68626C86.6195 3.84855 86.696 4.05721 86.696 4.29678V10.0928C86.696 10.3323 86.6195 10.541 86.4589 10.7033Z" fill="white"/>
<path d="M95.4315 3.53945C95.5921 3.70173 95.6686 3.90266 95.6686 4.15769V10.3942C95.6686 11.5379 95.3167 12.3803 94.6206 12.9289C93.9246 13.4776 93.0373 13.7481 91.9587 13.7481C91.6833 13.7481 91.3009 13.7017 90.8113 13.609C90.3218 13.5163 89.9776 13.4235 89.7787 13.3308C89.3274 13.1376 89.0979 12.8594 89.0979 12.5194C89.0979 12.4575 89.1132 12.3803 89.1362 12.2952C89.1897 12.0866 89.2892 11.932 89.4192 11.8238C89.5569 11.7156 89.7022 11.6616 89.8552 11.6616C89.947 11.6616 90.0388 11.677 90.1153 11.7002C90.1535 11.7079 90.383 11.7929 90.8037 11.9629C91.2244 12.1252 91.6069 12.2102 91.9511 12.2102C92.6395 12.2102 93.1443 12.0711 93.4886 11.7929C93.8251 11.5147 93.9934 11.1283 93.9934 10.6183V9.94594C93.7869 10.2396 93.4809 10.4946 93.0678 10.7342C92.6548 10.966 92.2111 11.082 91.7445 11.082C91.0944 11.082 90.5054 10.9197 89.9776 10.5874C89.4421 10.2551 89.0291 9.79138 88.7231 9.20405C88.4171 8.61673 88.2642 7.94439 88.2642 7.19478C88.2642 6.44517 88.4171 5.77283 88.7155 5.17778C89.0138 4.58272 89.4268 4.11905 89.9546 3.78674C90.4748 3.45444 91.0561 3.28442 91.6986 3.28442C92.1729 3.28442 92.6089 3.38489 93.0143 3.57809C93.4197 3.77129 93.7486 4.01085 94.0011 4.29679V4.14223C94.0011 3.90266 94.0775 3.69401 94.2382 3.53172C94.3988 3.36943 94.5977 3.28442 94.8348 3.28442C95.0719 3.28442 95.2708 3.3617 95.4315 3.52399V3.53945ZM93.4809 8.87948C93.871 8.43898 94.0699 7.87484 94.0699 7.20251C94.0699 6.53017 93.871 5.96603 93.4809 5.51781C93.0908 5.06959 92.5783 4.84548 91.9587 4.84548C91.3391 4.84548 90.8343 5.06959 90.4442 5.51781C90.0541 5.96603 89.8628 6.53017 89.8628 7.20251C89.8628 7.87484 90.0541 8.43898 90.4442 8.87948C90.8343 9.3277 91.3391 9.54409 91.9587 9.54409C92.5783 9.54409 93.0831 9.31997 93.4809 8.87948Z" fill="white"/>
<path d="M97.8026 2.37251C97.6725 2.27205 97.6113 2.08657 97.6113 1.82382V1.55334C97.6113 1.29059 97.6802 1.11285 97.8179 1.00466C97.9555 0.904193 98.1774 0.850098 98.4833 0.850098C98.8046 0.850098 99.0341 0.904193 99.1641 1.00466C99.2941 1.10512 99.3553 1.29059 99.3553 1.55334V1.82382C99.3553 2.0943 99.2865 2.27977 99.1565 2.38024C99.0188 2.4807 98.7893 2.52707 98.468 2.52707C98.1468 2.52707 97.9326 2.47297 97.8026 2.37251ZM99.08 10.7033C98.9193 10.8656 98.7205 10.9506 98.4833 10.9506C98.2462 10.9506 98.0397 10.8656 97.8867 10.7033C97.7261 10.541 97.6496 10.3401 97.6496 10.0928V4.29678C97.6496 4.05721 97.7261 3.84855 97.8867 3.68626C98.0473 3.52398 98.2462 3.43897 98.4833 3.43897C98.7205 3.43897 98.9193 3.52398 99.08 3.68626C99.2406 3.84855 99.3171 4.05721 99.3171 4.29678V10.0928C99.3171 10.3323 99.2406 10.541 99.08 10.7033Z" fill="white"/>
<path d="M105.246 9.55171C105.353 9.67535 105.406 9.84537 105.406 10.0463C105.406 10.3013 105.269 10.51 104.993 10.6877C104.718 10.8577 104.412 10.9505 104.068 10.9505C103.494 10.9505 103.012 10.8268 102.614 10.5795C102.217 10.3322 102.025 9.80673 102.025 9.00302V5.12358H101.383C101.161 5.12358 100.977 5.0463 100.824 4.89947C100.679 4.75263 100.603 4.55943 100.603 4.33532C100.603 4.11121 100.679 3.9412 100.824 3.79436C100.97 3.64753 101.161 3.57798 101.383 3.57798H102.025V2.68154C102.025 2.44197 102.109 2.23331 102.27 2.07103C102.431 1.90874 102.63 1.82373 102.874 1.82373C103.119 1.82373 103.303 1.90874 103.456 2.07103C103.616 2.23331 103.693 2.44197 103.693 2.68154V3.57798H104.68C104.901 3.57798 105.085 3.65526 105.238 3.80209C105.383 3.94892 105.46 4.14212 105.46 4.36623C105.46 4.59035 105.383 4.76036 105.238 4.90719C105.093 5.05402 104.901 5.12358 104.68 5.12358H103.693V8.92574C103.693 9.11894 103.746 9.26577 103.846 9.35078C103.945 9.44352 104.083 9.48216 104.259 9.48216C104.335 9.48216 104.435 9.4667 104.565 9.42806C104.68 9.38169 104.779 9.35851 104.886 9.35851C105.016 9.35851 105.131 9.42033 105.238 9.55171H105.246Z" fill="white"/>
<path d="M113.874 3.53929C114.034 3.70157 114.111 3.9025 114.111 4.15753V10.0926C114.111 10.3322 114.034 10.5408 113.874 10.7031C113.713 10.8654 113.514 10.9504 113.277 10.9504C113.04 10.9504 112.841 10.8731 112.688 10.7108C112.535 10.5486 112.451 10.3476 112.443 10.1081C112.214 10.3785 111.9 10.6104 111.502 10.8036C111.112 10.9968 110.692 11.0895 110.256 11.0895C109.621 11.0895 109.039 10.9272 108.519 10.5949C107.999 10.2626 107.594 9.79895 107.288 9.21162C106.989 8.6243 106.836 7.95196 106.836 7.20235C106.836 6.45273 106.982 5.7804 107.28 5.18535C107.578 4.59029 107.984 4.12661 108.496 3.79431C109.009 3.46201 109.575 3.29199 110.194 3.29199C110.638 3.29199 111.059 3.377 111.441 3.53929C111.831 3.70157 112.16 3.91023 112.428 4.16525V4.1498C112.428 3.91023 112.504 3.70157 112.665 3.53929C112.826 3.377 113.025 3.29199 113.262 3.29199C113.499 3.29199 113.698 3.36927 113.858 3.53156L113.874 3.53929ZM111.946 8.87932C112.329 8.43882 112.512 7.87468 112.512 7.20235C112.512 6.53001 112.321 5.96587 111.946 5.51765C111.564 5.06943 111.074 4.84532 110.477 4.84532C109.881 4.84532 109.399 5.06943 109.016 5.51765C108.634 5.96587 108.45 6.53001 108.45 7.20235C108.45 7.87468 108.642 8.43882 109.016 8.87932C109.391 9.32754 109.881 9.54393 110.485 9.54393C111.089 9.54393 111.579 9.31981 111.954 8.87932H111.946Z" fill="white"/>
<path d="M117.76 10.6955C117.599 10.8578 117.393 10.9428 117.155 10.9428C116.918 10.9428 116.727 10.8578 116.574 10.6955C116.413 10.5332 116.337 10.3323 116.337 10.085V1.4142C116.337 1.17463 116.421 0.965979 116.582 0.803692C116.742 0.641404 116.941 0.556396 117.186 0.556396C117.431 0.556396 117.614 0.641404 117.767 0.803692C117.928 0.965979 118.004 1.17463 118.004 1.4142V10.085C118.004 10.3246 117.92 10.5332 117.76 10.6955Z" fill="white"/>
<path d="M84.0877 15.4172C84.256 15.5795 84.3478 15.7882 84.3478 16.0277V24.1498C84.3478 24.3894 84.2713 24.5981 84.1107 24.7603C83.95 24.9226 83.7435 25.0076 83.4834 25.0076C83.2234 25.0076 83.0168 24.9304 82.8486 24.7681C82.6879 24.6058 82.6038 24.4049 82.6038 24.1498V18.493L80.309 22.0324C80.2172 22.1483 80.1101 22.2333 79.9878 22.3028C79.8654 22.3724 79.743 22.4033 79.613 22.3956C79.4906 22.4033 79.3758 22.3724 79.2534 22.3028C79.1311 22.2333 79.024 22.1406 78.9322 22.0324L76.6374 18.3693V24.1498C76.6374 24.4049 76.5609 24.6058 76.4156 24.7681C76.2703 24.9304 76.0714 25.0076 75.8343 25.0076C75.5971 25.0076 75.4135 24.9226 75.2682 24.7603C75.1229 24.5981 75.0464 24.3971 75.0464 24.1498V16.0277C75.0464 15.7959 75.1305 15.595 75.3065 15.4249C75.4747 15.2549 75.6813 15.1699 75.926 15.1699C76.0637 15.1699 76.2014 15.2086 76.3391 15.2781C76.4768 15.3477 76.5839 15.4404 76.6604 15.5486L79.6894 20.2472L82.8027 15.5486C82.8792 15.4327 82.9786 15.3477 83.101 15.2781C83.2234 15.2086 83.3534 15.1699 83.4834 15.1699C83.7129 15.1699 83.9194 15.2549 84.0877 15.4172Z" fill="white"/>
<path d="M93.1828 17.6042C93.3434 17.7665 93.4199 17.9674 93.4199 18.2225V24.1576C93.4199 24.3971 93.3434 24.6058 93.1828 24.7681C93.0221 24.9304 92.8232 25.0154 92.5861 25.0154C92.349 25.0154 92.1501 24.9381 91.9971 24.7758C91.8441 24.6135 91.76 24.4126 91.7524 24.173C91.5229 24.4435 91.2093 24.6753 90.8115 24.8685C90.4214 25.0617 90.0007 25.1545 89.5647 25.1545C88.9298 25.1545 88.3485 24.9922 87.8283 24.6599C87.3082 24.3276 86.9028 23.8639 86.5968 23.2766C86.2985 22.6892 86.1455 22.0169 86.1455 21.2673C86.1455 20.5177 86.2908 19.8453 86.5892 19.2503C86.8875 18.6552 87.2929 18.1916 87.8054 17.8593C88.3179 17.527 88.8839 17.3569 89.5035 17.3569C89.9472 17.3569 90.3679 17.4419 90.7503 17.6042C91.1404 17.7665 91.4693 17.9752 91.7371 18.2302V18.2147C91.7371 17.9752 91.8136 17.7665 91.9742 17.6042C92.1348 17.4419 92.3337 17.3569 92.5708 17.3569C92.8079 17.3569 93.0068 17.4342 93.1675 17.5965L93.1828 17.6042ZM91.2552 22.9443C91.6376 22.5038 91.8212 21.9396 91.8212 21.2673C91.8212 20.595 91.63 20.0308 91.2552 19.5826C90.8727 19.1344 90.3832 18.9103 89.7865 18.9103C89.1899 18.9103 88.708 19.1344 88.3255 19.5826C87.9431 20.0308 87.7595 20.595 87.7595 21.2673C87.7595 21.9396 87.9507 22.5038 88.3255 22.9443C88.7003 23.3925 89.1899 23.6089 89.7942 23.6089C90.3985 23.6089 90.888 23.3848 91.2628 22.9443H91.2552Z" fill="white"/>
<path d="M94.9419 23.4235C94.9419 23.1839 95.0643 22.9753 95.3014 22.8052C95.4314 22.7202 95.5691 22.6816 95.7068 22.6816C95.898 22.6816 96.0893 22.7743 96.2652 22.9521C96.5406 23.2457 96.8312 23.4544 97.1296 23.5935C97.4279 23.7326 97.795 23.8021 98.2234 23.8021C98.9424 23.7712 99.3096 23.5008 99.3096 22.9753C99.3096 22.7048 99.1872 22.4961 98.9424 22.357C98.6976 22.2179 98.3152 22.0788 97.795 21.9397C97.2596 21.7929 96.8236 21.6383 96.4794 21.4915C96.1428 21.3447 95.8521 21.1128 95.6074 20.8114C95.3626 20.51 95.2402 20.1005 95.2402 19.5827C95.2402 19.1345 95.3702 18.7403 95.6227 18.408C95.8751 18.0757 96.2117 17.8207 96.6247 17.6352C97.0378 17.4498 97.4738 17.3647 97.9404 17.3647C98.407 17.3647 98.8812 17.4575 99.3555 17.6352C99.8297 17.813 100.197 18.0757 100.465 18.4235C100.587 18.5703 100.648 18.7403 100.648 18.9258C100.648 19.1422 100.556 19.3199 100.38 19.459C100.25 19.5595 100.105 19.6136 99.9368 19.6136C99.7303 19.6136 99.5697 19.5518 99.4396 19.4204C99.2713 19.2117 99.0572 19.0494 98.7971 18.9258C98.5294 18.8021 98.231 18.7403 97.9021 18.7403C97.1984 18.7403 96.8465 18.9953 96.8465 19.5131C96.8465 19.7218 96.9077 19.8841 97.0378 20.0077C97.1678 20.1314 97.3284 20.2318 97.5273 20.3014C97.7262 20.3709 98.0092 20.4559 98.3687 20.5641C98.8659 20.7032 99.2866 20.8501 99.6155 20.9969C99.9521 21.1437 100.235 21.3756 100.465 21.6847C100.694 21.9938 100.809 22.4034 100.809 22.9057C100.809 23.3617 100.671 23.7635 100.403 24.1035C100.136 24.4436 99.7915 24.7063 99.3708 24.8841C98.9501 25.0618 98.5141 25.1545 98.0704 25.1545C97.4585 25.1545 96.8924 25.0541 96.3646 24.8454C95.8369 24.6368 95.4085 24.3045 95.0719 23.8485C94.9878 23.7326 94.9495 23.5935 94.9495 23.4312L94.9419 23.4235Z" fill="white"/>
<path d="M106.408 23.6167C106.515 23.7404 106.569 23.9104 106.569 24.1113C106.569 24.3663 106.431 24.575 106.156 24.7527C105.88 24.9228 105.574 25.0155 105.23 25.0155C104.657 25.0155 104.175 24.8918 103.777 24.6446C103.379 24.3973 103.188 23.8718 103.188 23.068V19.1963H102.545C102.324 19.1963 102.14 19.119 101.987 18.9722C101.842 18.8254 101.765 18.6322 101.765 18.4081C101.765 18.184 101.842 18.014 101.987 17.8671C102.132 17.7203 102.324 17.6507 102.545 17.6507H103.188V16.7543C103.188 16.5147 103.272 16.3061 103.433 16.1438C103.593 15.9815 103.792 15.8965 104.037 15.8965C104.282 15.8965 104.465 15.9815 104.618 16.1438C104.779 16.3061 104.855 16.5147 104.855 16.7543V17.6507H105.842C106.064 17.6507 106.248 17.728 106.401 17.8748C106.546 18.0217 106.622 18.2149 106.622 18.439C106.622 18.6631 106.546 18.8331 106.401 18.9799C106.255 19.1268 106.064 19.1963 105.842 19.1963H104.855V22.9985C104.855 23.1917 104.909 23.3385 105.008 23.4235C105.108 23.5163 105.246 23.5549 105.421 23.5549C105.498 23.5549 105.597 23.5395 105.727 23.5008C105.842 23.4544 105.942 23.4313 106.049 23.4313C106.179 23.4313 106.293 23.4931 106.401 23.6245L106.408 23.6167Z" fill="white"/>
<path d="M114.761 21.6306C114.593 21.7697 114.402 21.8392 114.18 21.8392H109.598C109.713 22.3879 109.965 22.8207 110.363 23.1375C110.761 23.4544 111.212 23.609 111.709 23.609C112.091 23.609 112.382 23.5703 112.596 23.5008C112.811 23.4312 112.979 23.3539 113.101 23.2766C113.224 23.1994 113.315 23.1453 113.361 23.1144C113.53 23.0294 113.683 22.9907 113.836 22.9907C114.027 22.9907 114.195 23.0603 114.333 23.1994C114.47 23.3385 114.539 23.5008 114.539 23.694C114.539 23.949 114.409 24.1731 114.149 24.3817C113.889 24.5981 113.545 24.7759 113.109 24.9304C112.673 25.0773 112.237 25.1545 111.786 25.1545C111.005 25.1545 110.332 24.9923 109.751 24.66C109.17 24.3354 108.726 23.8794 108.412 23.3076C108.099 22.7357 107.938 22.0865 107.938 21.3678C107.938 20.5641 108.106 19.8532 108.435 19.2504C108.772 18.6399 109.208 18.1762 109.758 17.8516C110.302 17.527 110.891 17.3647 111.51 17.3647C112.13 17.3647 112.696 17.5348 113.239 17.8671C113.782 18.2071 114.21 18.6553 114.539 19.2272C114.861 19.7991 115.029 20.4173 115.029 21.0819C115.021 21.306 114.929 21.4915 114.761 21.6306ZM109.606 20.4405H113.247V20.34C113.208 19.9459 113.017 19.6136 112.68 19.3277C112.336 19.0494 111.946 18.9103 111.51 18.9103C110.439 18.9103 109.804 19.4204 109.606 20.4405Z" fill="white"/>
<path d="M121.255 17.6044C121.447 17.7667 121.538 17.9522 121.538 18.1685C121.538 18.4622 121.462 18.6786 121.317 18.8177C121.171 18.9645 120.995 19.0341 120.789 19.0341C120.651 19.0341 120.49 19.0032 120.315 18.9336C120.284 18.9259 120.223 18.9027 120.123 18.8795C120.024 18.8486 119.924 18.8409 119.81 18.8409C119.573 18.8409 119.335 18.9182 119.114 19.065C118.892 19.2118 118.708 19.4437 118.563 19.745C118.418 20.0464 118.349 20.4097 118.349 20.8347V24.1577C118.349 24.3973 118.272 24.6059 118.112 24.7682C117.951 24.9305 117.752 25.0155 117.515 25.0155C117.278 25.0155 117.079 24.9305 116.918 24.7682C116.758 24.6059 116.681 24.405 116.681 24.1577V18.3617C116.681 18.1222 116.758 17.9135 116.918 17.7512C117.079 17.5889 117.278 17.5039 117.515 17.5039C117.752 17.5039 117.951 17.5889 118.112 17.7512C118.272 17.9135 118.349 18.1222 118.349 18.3617V18.5472C118.563 18.1608 118.869 17.8749 119.267 17.674C119.664 17.473 120.093 17.3726 120.544 17.3726C120.819 17.3726 121.056 17.4498 121.248 17.6121L121.255 17.6044Z" fill="white"/>
<path d="M76.5305 38.8254C76.3546 38.9877 76.148 39.0727 75.9186 39.0727C75.6661 39.0727 75.4596 38.9877 75.299 38.8254C75.1383 38.6631 75.0542 38.4622 75.0542 38.2149V30.1005C75.0542 29.8609 75.1383 29.6523 75.3066 29.49C75.4749 29.3277 75.6891 29.2427 75.9492 29.2427C76.1786 29.2427 76.3775 29.3277 76.5458 29.49C76.7141 29.6523 76.7982 29.8609 76.7982 30.1005V38.2149C76.7982 38.4544 76.7064 38.6631 76.5381 38.8254H76.5305Z" fill="white"/>
<path d="M84.9442 32.272C85.3037 32.8361 85.4873 33.6243 85.4873 34.6213V38.2148C85.4873 38.4543 85.4108 38.663 85.2502 38.8253C85.0896 38.9876 84.8907 39.0726 84.6536 39.0726C84.4164 39.0726 84.2099 38.9876 84.0569 38.8253C83.8963 38.663 83.8198 38.4621 83.8198 38.2148V34.6213C83.8198 34.1035 83.7127 33.7016 83.4985 33.408C83.2844 33.1143 82.9172 32.9675 82.4047 32.9675C81.8922 32.9675 81.4486 33.122 81.1426 33.4389C80.8366 33.7557 80.6836 34.1498 80.6836 34.6213V38.2148C80.6836 38.4543 80.6071 38.663 80.4465 38.8253C80.2859 38.9876 80.087 39.0726 79.8499 39.0726C79.6127 39.0726 79.4139 38.9876 79.2532 38.8253C79.0926 38.663 79.0161 38.4621 79.0161 38.2148V32.4188C79.0161 32.1792 79.0926 31.9706 79.2532 31.8083C79.4139 31.646 79.6127 31.561 79.8499 31.561C80.087 31.561 80.2859 31.646 80.4465 31.8083C80.6071 31.9706 80.6836 32.1792 80.6836 32.4188V32.6583C80.9361 32.3183 81.2573 32.0324 81.6627 31.7851C82.0681 31.5455 82.5041 31.4219 82.986 31.4219C83.9269 31.4219 84.5847 31.7078 84.9442 32.272Z" fill="white"/>
<path d="M87.0176 37.4884C87.0176 37.2489 87.14 37.0402 87.3771 36.8702C87.5071 36.7852 87.6448 36.7465 87.7825 36.7465C87.9737 36.7465 88.165 36.8393 88.3409 37.017C88.6163 37.3107 88.9069 37.5193 89.2052 37.6584C89.5036 37.7975 89.8707 37.8671 90.2991 37.8671C91.0181 37.8362 91.3853 37.5657 91.3853 37.0402C91.3853 36.7697 91.2629 36.5611 91.0181 36.422C90.7733 36.2829 90.3909 36.1438 89.8707 36.0047C89.3353 35.8578 88.8993 35.7033 88.5551 35.5564C88.2185 35.4096 87.9278 35.1778 87.6831 34.8764C87.4383 34.575 87.3159 34.1654 87.3159 33.6476C87.3159 33.1994 87.4459 32.8053 87.6984 32.473C87.9508 32.1407 88.2873 31.8856 88.7004 31.7002C89.1135 31.5147 89.5495 31.4297 90.0161 31.4297C90.4827 31.4297 90.9569 31.5224 91.4312 31.7002C91.9054 31.8779 92.2726 32.1407 92.5403 32.4884C92.6627 32.6353 92.7239 32.8053 92.7239 32.9907C92.7239 33.2071 92.6321 33.3849 92.4562 33.524C92.3261 33.6244 92.1808 33.6785 92.0125 33.6785C91.806 33.6785 91.6453 33.6167 91.5153 33.4853C91.347 33.2767 91.1328 33.1144 90.8728 32.9907C90.605 32.8671 90.3067 32.8053 89.9778 32.8053C89.2741 32.8053 88.9222 33.0603 88.9222 33.5781C88.9222 33.7867 88.9834 33.949 89.1135 34.0727C89.2435 34.1963 89.4041 34.2968 89.603 34.3663C89.8019 34.4359 90.0849 34.5209 90.4444 34.6291C90.9416 34.7682 91.3623 34.915 91.6912 35.0618C92.0278 35.2087 92.3108 35.4405 92.5403 35.7496C92.7698 36.0587 92.8845 36.4683 92.8845 36.9706C92.8845 37.4266 92.7468 37.8285 92.4791 38.1685C92.2114 38.5085 91.8672 38.7713 91.4465 38.949C91.0258 39.1268 90.5897 39.2195 90.1461 39.2195C89.5342 39.2195 88.9681 39.119 88.4403 38.9104C87.9125 38.7017 87.4842 38.3694 87.1476 37.9135C87.0635 37.7975 87.0252 37.6584 87.0252 37.4962L87.0176 37.4884Z" fill="white"/>
<path d="M98.4761 37.6817C98.5832 37.8053 98.6367 37.9753 98.6367 38.1763C98.6367 38.4313 98.499 38.6399 98.2236 38.8177C97.9483 38.9877 97.6423 39.0804 97.2981 39.0804C96.7244 39.0804 96.2425 38.9568 95.8447 38.7095C95.447 38.4622 95.2558 37.9367 95.2558 37.133V33.2613H94.6132C94.3914 33.2613 94.2078 33.184 94.0548 33.0372C93.9095 32.8903 93.833 32.6971 93.833 32.473C93.833 32.2489 93.9095 32.0789 94.0548 31.9321C94.2002 31.7852 94.3914 31.7157 94.6132 31.7157H95.2558V30.8192C95.2558 30.5797 95.3399 30.371 95.5005 30.2087C95.6612 30.0464 95.86 29.9614 96.1048 29.9614C96.3496 29.9614 96.5332 30.0464 96.6862 30.2087C96.8468 30.371 96.9233 30.5797 96.9233 30.8192V31.7157H97.91C98.1319 31.7157 98.3154 31.793 98.4684 31.9398C98.6137 32.0866 98.6902 32.2798 98.6902 32.5039C98.6902 32.728 98.6137 32.8981 98.4684 33.0449C98.3231 33.1917 98.1319 33.2613 97.91 33.2613H96.9233V37.0634C96.9233 37.2566 96.9768 37.4035 97.0763 37.4885C97.1757 37.5812 97.3134 37.6198 97.4893 37.6198C97.5658 37.6198 97.6653 37.6044 97.7953 37.5658C97.91 37.5194 98.0095 37.4962 98.1166 37.4962C98.2466 37.4962 98.3613 37.558 98.4684 37.6894L98.4761 37.6817Z" fill="white"/>
<path d="M100.556 30.5024C100.426 30.4019 100.365 30.2165 100.365 29.9537V29.6832C100.365 29.4205 100.434 29.2427 100.572 29.1345C100.709 29.0341 100.931 28.98 101.237 28.98C101.559 28.98 101.788 29.0341 101.918 29.1345C102.048 29.235 102.109 29.4205 102.109 29.6832V29.9537C102.109 30.2242 102.04 30.4097 101.91 30.5101C101.773 30.6106 101.543 30.6569 101.222 30.6569C100.901 30.6569 100.687 30.6029 100.556 30.5024ZM101.834 38.8332C101.673 38.9954 101.474 39.0804 101.237 39.0804C101 39.0804 100.794 38.9954 100.641 38.8332C100.48 38.6709 100.403 38.4699 100.403 38.2226V32.4267C100.403 32.1871 100.48 31.9784 100.641 31.8161C100.801 31.6539 101 31.5689 101.237 31.5689C101.474 31.5689 101.673 31.6539 101.834 31.8161C101.995 31.9784 102.071 32.1871 102.071 32.4267V38.2226C102.071 38.4622 101.995 38.6709 101.834 38.8332Z" fill="white"/>
<path d="M107.991 37.6817C108.098 37.8053 108.152 37.9753 108.152 38.1763C108.152 38.4313 108.014 38.6399 107.739 38.8177C107.463 38.9877 107.157 39.0804 106.813 39.0804C106.24 39.0804 105.758 38.9568 105.36 38.7095C104.962 38.4622 104.771 37.9367 104.771 37.133V33.2613H104.128C103.907 33.2613 103.723 33.184 103.57 33.0372C103.425 32.8903 103.348 32.6971 103.348 32.473C103.348 32.2489 103.425 32.0789 103.57 31.9321C103.715 31.7852 103.907 31.7157 104.128 31.7157H104.771V30.8192C104.771 30.5797 104.855 30.371 105.016 30.2087C105.176 30.0464 105.375 29.9614 105.62 29.9614C105.865 29.9614 106.048 30.0464 106.201 30.2087C106.362 30.371 106.438 30.5797 106.438 30.8192V31.7157H107.425C107.647 31.7157 107.831 31.793 107.984 31.9398C108.129 32.0866 108.205 32.2798 108.205 32.5039C108.205 32.728 108.129 32.8981 107.984 33.0449C107.838 33.1917 107.647 33.2613 107.425 33.2613H106.438V37.0634C106.438 37.2566 106.492 37.4035 106.591 37.4885C106.691 37.5812 106.829 37.6198 107.004 37.6198C107.081 37.6198 107.18 37.6044 107.31 37.5658C107.425 37.5194 107.525 37.4962 107.632 37.4962C107.762 37.4962 107.876 37.558 107.984 37.6894L107.991 37.6817Z" fill="white"/>
<path d="M116.122 31.8161C116.283 31.9784 116.36 32.1871 116.36 32.4267V35.9893C116.36 37.0016 116.084 37.7899 115.533 38.3617C114.983 38.9336 114.195 39.2195 113.178 39.2195C112.16 39.2195 111.38 38.9336 110.829 38.3617C110.278 37.7899 110.011 37.0016 110.011 35.9893V32.4267C110.011 32.1871 110.087 31.9784 110.248 31.8161C110.408 31.6539 110.607 31.5688 110.845 31.5688C111.082 31.5688 111.281 31.6539 111.441 31.8161C111.602 31.9784 111.678 32.1871 111.678 32.4267V35.9893C111.678 36.5611 111.801 36.9862 112.053 37.2566C112.305 37.5348 112.68 37.6739 113.178 37.6739C113.675 37.6739 114.065 37.5348 114.317 37.2566C114.57 36.9784 114.692 36.5611 114.692 35.9893V32.4267C114.692 32.1871 114.769 31.9784 114.929 31.8161C115.09 31.6539 115.289 31.5688 115.526 31.5688C115.763 31.5688 115.962 31.6539 116.122 31.8161Z" fill="white"/>
<path d="M122.379 37.6817C122.486 37.8053 122.54 37.9753 122.54 38.1763C122.54 38.4313 122.402 38.6399 122.127 38.8177C121.852 38.9877 121.546 39.0804 121.201 39.0804C120.628 39.0804 120.146 38.9568 119.748 38.7095C119.35 38.4622 119.159 37.9367 119.159 37.133V33.2613H118.517C118.295 33.2613 118.111 33.184 117.958 33.0372C117.813 32.8903 117.736 32.6971 117.736 32.473C117.736 32.2489 117.813 32.0789 117.958 31.9321C118.103 31.7852 118.295 31.7157 118.517 31.7157H119.159V30.8192C119.159 30.5797 119.243 30.371 119.404 30.2087C119.564 30.0464 119.763 29.9614 120.008 29.9614C120.253 29.9614 120.436 30.0464 120.589 30.2087C120.75 30.371 120.827 30.5797 120.827 30.8192V31.7157H121.813C122.035 31.7157 122.219 31.793 122.372 31.9398C122.517 32.0866 122.594 32.2798 122.594 32.5039C122.594 32.728 122.517 32.8981 122.372 33.0449C122.226 33.1917 122.035 33.2613 121.813 33.2613H120.827V37.0634C120.827 37.2566 120.88 37.4035 120.98 37.4885C121.079 37.5812 121.217 37.6198 121.393 37.6198C121.469 37.6198 121.569 37.6044 121.699 37.5658C121.813 37.5194 121.913 37.4962 122.02 37.4962C122.15 37.4962 122.265 37.558 122.372 37.6894L122.379 37.6817Z" fill="white"/>
<path d="M130.732 35.6955C130.564 35.8346 130.373 35.9042 130.151 35.9042H125.569C125.684 36.4529 125.936 36.8856 126.334 37.2025C126.732 37.5193 127.183 37.6739 127.68 37.6739C128.063 37.6739 128.353 37.6353 128.568 37.5657C128.782 37.4962 128.95 37.4189 129.072 37.3416C129.195 37.2643 129.287 37.2102 129.332 37.1793C129.501 37.0943 129.654 37.0557 129.807 37.0557C129.998 37.0557 130.166 37.1252 130.304 37.2643C130.442 37.4034 130.51 37.5657 130.51 37.7589C130.51 38.0139 130.38 38.238 130.12 38.4467C129.86 38.6631 129.516 38.8408 129.08 38.9954C128.644 39.1422 128.208 39.2195 127.757 39.2195C126.977 39.2195 126.303 39.0572 125.722 38.7249C125.141 38.4003 124.697 37.9444 124.383 37.3725C124.07 36.8006 123.909 36.1515 123.909 35.4328C123.909 34.6291 124.077 33.9181 124.406 33.3153C124.743 32.7048 125.179 32.2411 125.73 31.9166C126.273 31.592 126.862 31.4297 127.481 31.4297C128.101 31.4297 128.667 31.5997 129.21 31.932C129.753 32.272 130.182 32.7203 130.51 33.2921C130.832 33.864 131 34.4822 131 35.1468C130.992 35.371 130.901 35.5564 130.732 35.6955ZM125.577 34.5054H129.218V34.405C129.179 34.0108 128.988 33.6785 128.652 33.3926C128.307 33.1144 127.917 32.9753 127.481 32.9753C126.41 32.9753 125.776 33.4853 125.577 34.5054Z" fill="white"/>
</g>
<defs>
<clipPath id="clip0_3_2434">
<rect width="131" height="40" fill="white"/>
</clipPath>
</defs>
</svg>
