<svg width="22" height="19" viewBox="0 0 22 19" fill="none" xmlns="http://www.w3.org/2000/svg">
<path fill-rule="evenodd" clip-rule="evenodd" d="M21.1501 14.4789C21.4739 14.7634 21.9819 14.5323 21.9802 14.1012L21.9628 9.81623V2.8785C21.9628 1.60129 20.7846 0.565918 19.3312 0.565918H7.05052C5.59714 0.565918 4.41895 1.60129 4.41895 2.8785V7.14437H11.667C13.3239 7.14437 14.667 8.48751 14.667 10.1444V12.1288H18.4759L21.1501 14.4789Z" fill="white"/>
<path opacity="0.3" fill-rule="evenodd" clip-rule="evenodd" d="M0.0673828 15.3829V10.8059C0.0673828 9.79477 1.00012 8.9751 2.15072 8.9751H10.4841C11.6346 8.9751 12.5674 9.79477 12.5674 10.8059V15.3829C12.5674 16.394 11.6346 17.2137 10.4841 17.2137H2.27127L0.916469 18.3532C0.59123 18.6267 0.0946246 18.3955 0.0946246 17.9705V15.6797C0.0767014 15.5831 0.0673828 15.4839 0.0673828 15.3829ZM4.24961 12.179C4.24961 11.9262 4.45453 11.7213 4.70731 11.7213H10.0419C10.2947 11.7213 10.4996 11.9262 10.4996 12.179C10.4996 12.4318 10.2947 12.6367 10.0419 12.6367H4.70731C4.45453 12.6367 4.24961 12.4318 4.24961 12.179ZM7.83231 13.5521C7.57953 13.5521 7.37461 13.757 7.37461 14.0098C7.37461 14.2626 7.57953 14.4675 7.83231 14.4675H10.0419C10.2947 14.4675 10.4996 14.2626 10.4996 14.0098C10.4996 13.757 10.2947 13.5521 10.0419 13.5521H7.83231Z" fill="white"/>
</svg>
