<svg width="17" height="20" viewBox="0 0 17 20" fill="none" xmlns="http://www.w3.org/2000/svg">
<path d="M16.6733 14.6772C15.9401 13.8853 14.5684 12.6942 14.5684 8.79232C14.5684 5.82872 12.5011 3.45632 9.71352 2.87428V2.07941C9.71352 1.40545 9.17013 0.858887 8.5 0.858887C7.82987 0.858887 7.28648 1.40545 7.28648 2.07941V2.87428C4.49894 3.45632 2.43163 5.82872 2.43163 8.79232C2.43163 12.6942 1.05987 13.8853 0.326744 14.6772C0.0990661 14.9232 -0.00187108 15.2172 2.62356e-05 15.5052C0.00420033 16.1307 0.492569 16.7257 1.2181 16.7257H15.7819C16.5074 16.7257 16.9962 16.1307 17 15.5052C17.0019 15.2172 16.9009 14.9228 16.6733 14.6772Z" fill="white"/>
<path d="M10.9271 17.4575C10.9271 18.8058 9.83995 19.8986 8.49969 19.8986C7.15943 19.8986 6.07227 18.8058 6.07227 17.4575H10.9271Z" fill="#5E6370"/>
</svg>
