<svg width="19" height="21" viewBox="0 0 19 21" fill="none" xmlns="http://www.w3.org/2000/svg">
<path opacity="0.3" d="M11 14.5284C10.3491 13.8929 11.8493 14.0368 12.5001 13.4013C13.151 12.7658 12.8493 11.9402 13.5002 12.5757L18.5118 17.609C19.1627 18.2446 19.1627 19.275 18.5118 19.9105C17.861 20.546 16.8057 20.546 16.1548 19.9105L11 14.5284Z" fill="white"/>
<path fill-rule="evenodd" clip-rule="evenodd" d="M0 8.833C0 13.237 3.65634 16.8071 8.16667 16.8071C12.677 16.8071 16.3333 13.237 16.3333 8.833C16.3333 4.42902 12.677 0.858887 8.16667 0.858887C3.65634 0.858887 0 4.42902 0 8.833ZM14.0002 8.83322C14.0002 11.9789 11.3885 14.529 8.16683 14.529C4.94517 14.529 2.3335 11.9789 2.3335 8.83322C2.3335 5.68752 4.94517 3.13743 8.16683 3.13743C11.3885 3.13743 14.0002 5.68752 14.0002 8.83322Z" fill="white"/>
</svg>
